<mxfile host="app.diagrams.net" modified="2021-10-20T03:23:42.409Z" agent="5.0 (Windows NT 10.0; Win64; x64) AppleWebKit/537.36 (KHTML, like Gecko) Chrome/94.0.4606.81 Safari/537.36" etag="vm6bOm4rIdYISE-18yNz" version="15.3.5" type="github">
  <diagram id="3BFR3GqZxXMxbAWBfeUj" name="Page-1">
    <mxGraphModel dx="1038" dy="483" grid="0" gridSize="10" guides="1" tooltips="1" connect="1" arrows="1" fold="1" page="1" pageScale="1" pageWidth="827" pageHeight="1169" math="0" shadow="0">
      <root>
        <mxCell id="0" />
        <mxCell id="1" parent="0" />
        <mxCell id="NzVSwbk70iNXb31Qm06j-4" value="" style="rounded=1;whiteSpace=wrap;html=1;dashed=1;" parent="1" vertex="1">
          <mxGeometry x="443" y="272" width="300" height="409" as="geometry" />
        </mxCell>
        <mxCell id="pgLIFL3BZB2Xo_3dE_xm-11" value="" style="rounded=1;whiteSpace=wrap;html=1;dashed=1;" parent="1" vertex="1">
          <mxGeometry x="183" y="131" width="380" height="110" as="geometry" />
        </mxCell>
        <mxCell id="pgLIFL3BZB2Xo_3dE_xm-2" style="edgeStyle=none;orthogonalLoop=1;jettySize=auto;html=1;entryX=0;entryY=0.5;entryDx=0;entryDy=0;entryPerimeter=0;startArrow=none;startFill=0;endArrow=none;endFill=0;rounded=1;strokeColor=#CC6600;strokeWidth=4;" parent="1" source="EAKdSy7ptGbpC2-vD8Ey-14" target="pgLIFL3BZB2Xo_3dE_xm-1" edge="1">
          <mxGeometry relative="1" as="geometry" />
        </mxCell>
        <mxCell id="EAKdSy7ptGbpC2-vD8Ey-14" value="POP点-1" style="shape=mxgraph.cisco.hubs_and_gateways.generic_gateway;html=1;pointerEvents=1;dashed=0;fillColor=#036897;strokeColor=#ffffff;strokeWidth=2;verticalLabelPosition=bottom;verticalAlign=top;align=center;outlineConnect=0;" parent="1" vertex="1">
          <mxGeometry x="236" y="152" width="49" height="60" as="geometry" />
        </mxCell>
        <mxCell id="EAKdSy7ptGbpC2-vD8Ey-17" style="edgeStyle=none;rounded=1;orthogonalLoop=1;jettySize=auto;html=1;exitX=0.5;exitY=0;exitDx=0;exitDy=0;startArrow=none;startFill=0;endArrow=none;endFill=0;" parent="1" edge="1">
          <mxGeometry relative="1" as="geometry">
            <mxPoint x="245" y="272" as="sourcePoint" />
            <mxPoint x="245" y="272" as="targetPoint" />
          </mxGeometry>
        </mxCell>
        <mxCell id="pgLIFL3BZB2Xo_3dE_xm-1" value="POP点-2" style="shape=mxgraph.cisco.hubs_and_gateways.generic_gateway;html=1;pointerEvents=1;dashed=0;fillColor=#036897;strokeColor=#ffffff;strokeWidth=2;verticalLabelPosition=bottom;verticalAlign=top;align=center;outlineConnect=0;" parent="1" vertex="1">
          <mxGeometry x="481.75" y="152" width="49" height="60" as="geometry" />
        </mxCell>
        <mxCell id="pgLIFL3BZB2Xo_3dE_xm-4" value="专线" style="text;html=1;align=center;verticalAlign=middle;resizable=0;points=[];autosize=1;" parent="1" vertex="1">
          <mxGeometry x="375" y="192" width="40" height="20" as="geometry" />
        </mxCell>
        <mxCell id="pgLIFL3BZB2Xo_3dE_xm-12" value="&lt;font style=&quot;font-size: 14px&quot;&gt;SD-WAN骨干网&lt;/font&gt;" style="text;html=1;resizable=0;autosize=1;align=center;verticalAlign=middle;points=[];fillColor=#fa6800;strokeColor=#C73500;rounded=0;dashed=1;fontColor=#ffffff;fontStyle=1" parent="1" vertex="1">
          <mxGeometry x="325" y="142" width="110" height="20" as="geometry" />
        </mxCell>
        <mxCell id="CFlZzpwRj5Hc7I2CVyy_-16" style="edgeStyle=none;rounded=1;orthogonalLoop=1;jettySize=auto;html=1;exitX=0.5;exitY=0;exitDx=0;exitDy=0;exitPerimeter=0;entryX=0.5;entryY=1;entryDx=0;entryDy=0;entryPerimeter=0;startArrow=none;startFill=0;endArrow=none;endFill=0;" parent="1" source="CFlZzpwRj5Hc7I2CVyy_-17" target="CFlZzpwRj5Hc7I2CVyy_-19" edge="1">
          <mxGeometry relative="1" as="geometry">
            <mxPoint x="505.75" y="382" as="sourcePoint" />
          </mxGeometry>
        </mxCell>
        <mxCell id="CFlZzpwRj5Hc7I2CVyy_-17" value="VCPE" style="shape=mxgraph.cisco.routers.content_service_router;html=1;pointerEvents=1;dashed=0;fillColor=#036897;strokeColor=#ffffff;strokeWidth=2;verticalLabelPosition=bottom;verticalAlign=top;align=center;outlineConnect=0;" parent="1" vertex="1">
          <mxGeometry x="471.25" y="380" width="70" height="40" as="geometry" />
        </mxCell>
        <mxCell id="CFlZzpwRj5Hc7I2CVyy_-19" value="阿里云出口" style="shape=mxgraph.cisco.modems_and_phones.cable_modem;html=1;pointerEvents=1;dashed=0;fillColor=#036897;strokeColor=#ffffff;strokeWidth=2;verticalLabelPosition=bottom;verticalAlign=top;align=center;outlineConnect=0;" parent="1" vertex="1">
          <mxGeometry x="468.75" y="292" width="74" height="35" as="geometry" />
        </mxCell>
        <mxCell id="CFlZzpwRj5Hc7I2CVyy_-21" value="PC" style="shape=mxgraph.cisco.computers_and_peripherals.laptop;html=1;pointerEvents=1;dashed=0;fillColor=#036897;strokeColor=#ffffff;strokeWidth=2;verticalLabelPosition=bottom;verticalAlign=top;align=center;outlineConnect=0;" parent="1" vertex="1">
          <mxGeometry x="462.75" y="490" width="80" height="50" as="geometry" />
        </mxCell>
        <mxCell id="CFlZzpwRj5Hc7I2CVyy_-22" style="edgeStyle=none;rounded=1;orthogonalLoop=1;jettySize=auto;html=1;exitX=0.5;exitY=0;exitDx=0;exitDy=0;startArrow=none;startFill=0;endArrow=none;endFill=0;" parent="1" edge="1">
          <mxGeometry relative="1" as="geometry">
            <mxPoint x="560.2499999999998" y="272" as="sourcePoint" />
            <mxPoint x="560.2499999999998" y="272" as="targetPoint" />
          </mxGeometry>
        </mxCell>
        <mxCell id="CFlZzpwRj5Hc7I2CVyy_-23" value="&lt;span style=&quot;font-size: 14px&quot;&gt;阿里云&lt;/span&gt;" style="text;html=1;resizable=0;autosize=1;align=center;verticalAlign=middle;points=[];fillColor=#fa6800;strokeColor=#C73500;rounded=0;dashed=1;fontColor=#ffffff;fontStyle=1" parent="1" vertex="1">
          <mxGeometry x="476.75" y="632" width="52" height="18" as="geometry" />
        </mxCell>
        <mxCell id="CFlZzpwRj5Hc7I2CVyy_-25" style="edgeStyle=none;rounded=1;orthogonalLoop=1;jettySize=auto;html=1;exitX=0.5;exitY=0;exitDx=0;exitDy=0;exitPerimeter=0;entryX=0.5;entryY=1;entryDx=0;entryDy=0;entryPerimeter=0;startArrow=none;startFill=0;endArrow=none;endFill=0;" parent="1" source="CFlZzpwRj5Hc7I2CVyy_-19" target="pgLIFL3BZB2Xo_3dE_xm-1" edge="1">
          <mxGeometry relative="1" as="geometry">
            <mxPoint x="508.9100000000002" y="282" as="sourcePoint" />
            <mxPoint x="508.9100000000002" y="202" as="targetPoint" />
          </mxGeometry>
        </mxCell>
        <mxCell id="NzVSwbk70iNXb31Qm06j-1" value="管理IP：&lt;br&gt;eth0：192.168.20.237/24&lt;br&gt;加速IP：47.105.47.197/32" style="text;html=1;resizable=0;autosize=1;align=center;verticalAlign=middle;points=[];fillColor=none;strokeColor=none;rounded=0;hachureGap=4;pointerEvents=0;" parent="1" vertex="1">
          <mxGeometry x="551" y="488" width="151" height="45" as="geometry" />
        </mxCell>
        <mxCell id="NzVSwbk70iNXb31Qm06j-2" value="管理IP：&lt;br&gt;eth0（WAN）：&lt;br&gt;eth1（LAN）：192.168.20.20/24" style="text;html=1;resizable=0;autosize=1;align=center;verticalAlign=middle;points=[];fillColor=none;strokeColor=none;rounded=0;hachureGap=4;pointerEvents=0;" parent="1" vertex="1">
          <mxGeometry x="552" y="380" width="186" height="45" as="geometry" />
        </mxCell>
        <mxCell id="NzVSwbk70iNXb31Qm06j-6" value="&lt;font style=&quot;font-size: 24px ; font-weight: normal&quot;&gt;蟠龙物流SAAS测试网络&lt;/font&gt;" style="text;html=1;resizable=0;autosize=1;align=center;verticalAlign=middle;points=[];rounded=0;dashed=1;fontStyle=1;" parent="1" vertex="1">
          <mxGeometry x="254" y="80" width="266" height="22" as="geometry" />
        </mxCell>
      </root>
    </mxGraphModel>
  </diagram>
</mxfile>
